<?xml version="1.0"?>
<svg width="634" height="400" xmlns="http://www.w3.org/2000/svg">
 <!-- Created with Method Draw - http://github.com/duopixel/Method-Draw/ -->


  <title>Layer 1</title>
  <ellipse stroke="#000" ry="184.999993" rx="59" id="svg_1" cy="197.500007" cx="274.5" stroke-width="15.5" fill="#fff"/>
  <path id="svg_5" d="m639.5,134.5" opacity="0.5" fill-opacity="null" stroke-opacity="null" stroke-width="13.5" stroke="#000" fill="#fff"/>
  <path id="svg_7" d="m268.5,134.5" opacity="0.5" fill-opacity="null" stroke-opacity="null" stroke-width="13.5" stroke="#000" fill="#fff"/>
  <path stroke="#000" d="m225.5,135.5c1.0625,0 2.436203,0.292892 3.1875,1c0.751297,0.707108 0.311203,1.292892 1.0625,2c0.751297,0.707108 1.373703,0.292892 2.125,1c0.751297,0.707108 2.125,1 2.125,1c1.0625,0 1.0625,1 3.1875,1c1.0625,0 1.0625,0 2.125,0c1.0625,0 -0.440109,0.585785 1.0625,2c0.751297,0.707108 1.799271,0.458801 3.1875,1c1.963242,0.765366 3.1875,0 4.25,0c1.0625,0 2.436203,0.292892 3.1875,1c0.751297,0.707108 0,1 1.0625,1c2.125,0 2.205887,-0.38269 3.1875,0c1.388214,0.541199 2.125,1 2.125,1c1.0625,0 1.799286,0.458801 3.1875,1c0.981628,0.38269 2.125,0 3.1875,0c1.0625,0 1.0625,0 2.125,0c1.0625,0 2.125,0 2.125,0c1.0625,0 2.125,0 3.1875,0c1.0625,0 2.125,0 3.1875,0c0,0 1.0625,0 2.125,0c0,0 1.0625,0 2.125,0c1.0625,0 1.799286,-0.458801 3.1875,-1c0.981628,-0.38269 2.125,0 3.1875,0c1.0625,0 0.736786,-0.458801 2.125,-1c1.963226,-0.765366 3.1875,0 4.25,0c1.0625,0 1.799286,-0.458801 3.1875,-1c0.981628,-0.38269 1.0625,0 2.125,0c1.0625,0 1.799286,-0.458801 3.1875,-1c0.981628,-0.38269 1.799286,-0.458801 3.1875,-1c0.981628,-0.38269 2.436218,0.707108 3.1875,0c0.751282,-0.707108 1.0625,-1 2.125,-1c1.0625,0 2.125,-1 3.1875,-1c1.0625,0 2.125,-1 3.1875,-1c1.0625,0 1.373718,-0.292892 2.125,-1c0.751282,-0.707108 1.799286,-0.458801 3.1875,-1c0.981628,-0.38269 1.373718,-0.292892 2.125,-1c0.751282,-0.707108 0,-2 1.0625,-2c1.0625,0 1.0625,-1 2.125,-1l0,-1l1.0625,0l1.0625,0" id="svg_9" fill-opacity="null" stroke-opacity="null" stroke-width="9" fill="none"/>
  <ellipse stroke="#000" transform="rotate(-7.837530612945557 248.12959289550793,258.4548950195312) " ry="117.089586" rx="10" id="svg_11" cy="258.454888" cx="248.1296" fill-opacity="null" stroke-opacity="null" stroke-width="9" fill="none"/>
  <ellipse stroke="#000" transform="rotate(8.209589958190918 302.58520507812534,257.00732421875) " ry="117.496331" rx="10" id="svg_12" cy="257.007319" cx="302.585208" fill-opacity="null" stroke-opacity="null" stroke-width="9" fill="none"/>
  <path d="m226.5,137.5c0,1 0,3 0,4c0,1 0.707108,2.292892 0,3c-0.707108,0.707108 -2.458801,0.693436 -3,2c-0.38269,0.923874 -1.292892,1.292892 -2,2c-0.707108,0.707108 -1,0 -2,0c-1,0 -2,0 -2,-1c0,-1 0,-2 0,-3c0,-1 1,-1 3,-2l0,-1l1,0l1,0" id="svg_13" fill-opacity="null" stroke-opacity="null" stroke-width="9" stroke="#000" fill="none"/>
  <ellipse stroke="#000" ry="17" rx="17.499999" id="svg_14" cy="124.5" cx="247.999999" fill-opacity="null" stroke-opacity="null" stroke-width="9" fill="none"/>
  <ellipse stroke="#000" ry="26.499999" rx="26.999999" id="svg_15" cy="118.000001" cx="291.500001" fill-opacity="null" stroke-opacity="null" stroke-width="9" fill="none"/>
  <ellipse stroke="#000" transform="rotate(-1.3264011144638062 273.67776489258154,263.0051574707035) " ry="113.497407" rx="10" id="svg_17" cy="263.005172" cx="273.677775" fill-opacity="null" stroke-opacity="null" stroke-width="9" fill="none"/>
  <text font-style="italic" stroke="#000" transform="matrix(3.021052598953247,0,0,2.9642856121063232,-676.0420943498611,-20.624998927116394) " xml:space="preserve" text-anchor="left" font-family="'Times New Roman', Times, serif" font-size="24" id="svg_19" y="31.150602" x="331.520906" fill-opacity="null" stroke-opacity="null" stroke-width="0" fill="#000000">?</text>

</svg>
