<?xml version="1.0"?>
<svg width="37" height="129" xmlns="http://www.w3.org/2000/svg">
 <!-- Created with Method Draw - http://github.com/duopixel/Method-Draw/ -->
 <defs>
  <filter id="svg_12_blur">
   <feGaussianBlur stdDeviation="1.1" in="SourceGraphic"/>
  </filter>
 </defs>
 <g>
  <title>Layer 1</title>
  <g stroke="null" id="svg_36">
   <ellipse stroke="#000" ry="57.603811" rx="14.665537" id="svg_7" cy="58.802944" cx="16.964314" fill="#fff"/>
   <ellipse stroke="#000" transform="matrix(0.30194681439023996,0.01622106292849175,-0.01622106292849175,0.30194681439023996,492.21442163540263,420.9280650412021) " ry="132.450317" rx="12.221116" id="svg_9" cy="-1033.401971" cx="-1612.189892" stroke-width="3.5" fill="#fff"/>
   <ellipse stroke="#000" transform="matrix(0.30050203882556176,0.033667881795930096,-0.033667881795930096,0.30050203882556176,497.09658773755456,415.01884792245147) " ry="132.450317" rx="10.731239" id="svg_10" cy="-930.971689" cx="-1669.145619" stroke-width="3.5" fill="#fff"/>
   <path stroke="#000" filter="url(#svg_12_blur)" d="m3.5083,34.723969c0.302379,0 0.604753,0 1.209571,0c0.907132,0 1.511835,0 1.814272,0c0.302375,0 0.604754,0 1.209515,0c0.302376,0 0.90713,0 1.209512,0c0.302381,0 0.604815,0 1.209553,0c0.604787,0 0.907108,0 1.511931,0c0.302369,0 0.907136,0 1.511856,0c0.30241,0 0.907167,0 0.907167,0c0.302385,0 0.604759,0 0.604759,0c0.302425,0 0.604817,0 0.907182,0c0.302399,0 0.907166,0 1.511894,0c0.302399,0 0.60475,0 0.907164,0c0.302343,0 0.604689,0 0.907139,0c0.604717,0 1.209526,0 1.511904,0c0.302383,0 0.90715,0 1.51194,0c0.907116,0 1.511866,0 2.116676,0c0.302336,0 0.907017,0 1.209515,0c0.302374,0 0.604694,0 0.907177,0c0.302326,0 0.302326,0 0.604694,0c0.302406,0 0.390968,-0.088581 0.604782,-0.302372c0.213844,-0.213829 0.693316,0.213791 0.907125,0c0.213783,-0.213829 0.302368,-0.302376 0.604813,-0.302376c0.302324,0 0.302324,0 0.604696,0l0.30245,0l0,0" id="svg_12" fill-opacity="null" stroke-opacity="null" stroke-width="3.5" fill="none"/>
   <ellipse stroke="#000" ry="7.559556" rx="7.559556" id="svg_13" cy="26.257275" cx="21.348856" fill-opacity="null" stroke-opacity="null" stroke-width="1.5" fill="#fff"/>
   <ellipse stroke="#000" ry="4.535733" rx="4.535733" id="svg_14" cy="28.978715" cx="8.951186" fill-opacity="null" stroke-opacity="null" stroke-width="1.5" fill="#fff"/>
   <ellipse stroke="#000" transform="matrix(0.3002973250156049,-0.03544740034778761,0.03544740034778761,0.3002973250156049,478.9448409376646,436.6802350893185) " ry="132.450317" rx="12.221116" id="svg_15" cy="-1358.153691" cx="-1410.058692" stroke-width="3.5" fill="#fff"/>
   <ellipse stroke="#000" transform="matrix(0.3002973250156049,-0.03544740034778761,0.03544740034778761,0.3002973250156049,478.5945323698578,437.37666944309524) " ry="132.450317" rx="12.221116" id="svg_16" cy="-1347.153691" cx="-1391.058692" stroke-width="3.5" fill="#fff"/>
   <ellipse stroke="#000" transform="matrix(0.3023807333650011,-0.0009453531553159344,0.0009453531553159344,0.3023807333650011,487.3681529934583,426.4641060032223) " ry="132.450317" rx="19.234305" id="svg_8" cy="-1147.814028" cx="-1549.851066" stroke-width="3.5" fill="#fff"/>
  </g>
 </g>
</svg>